<?xml version="1.0" standalone="no"?><!DOCTYPE svg PUBLIC "-//W3C//DTD SVG 1.1//EN" "http://www.w3.org/Graphics/SVG/1.1/DTD/svg11.dtd"><svg t="1596701282139" class="icon" viewBox="0 0 1024 1024" version="1.1" xmlns="http://www.w3.org/2000/svg" p-id="1198" xmlns:xlink="http://www.w3.org/1999/xlink" width="34" height="34"><defs><style type="text/css"></style></defs><path d="M360.362667 542.037333H180.48v120.405334h180.394667v180.736h119.978666V662.442667h180.394667V542.037333H480.853333V361.642667H360.789333v180.394666h-0.512zM0 301.653333a120.661333 120.661333 0 0 1 120.405333-120.832h720.384v722.432A120.576 120.576 0 0 1 720.384 1024H120.405333A120.576 120.576 0 0 1 0 903.253333v-601.6z m904.021333 481.621334V120.32H300.373333c-33.194667 0 26.794667-120.32 59.733334-120.32h604.16a59.733333 59.733333 0 0 1 59.733333 60.416v662.442667c0 33.194667-119.978667 93.866667-119.978667 60.416z" p-id="1199" fill="#FF8761"></path></svg>