<?xml version="1.0" standalone="no"?><!DOCTYPE svg PUBLIC "-//W3C//DTD SVG 1.1//EN" "http://www.w3.org/Graphics/SVG/1.1/DTD/svg11.dtd"><svg t="1597645861889" class="icon" viewBox="0 0 1264 1024" version="1.1" xmlns="http://www.w3.org/2000/svg" p-id="7866" xmlns:xlink="http://www.w3.org/1999/xlink" width="158" height="128"><defs><style type="text/css"></style></defs><path d="M883.17 921.058C877.387 732.1 748.002 573.38 573.922 522.6c3.012-1.505 11.625-6.686 12.95-7.348 9.036-5.06 30.118-19.396 32.166-20.902 7.53-5.783 27.708-23.913 30.6-26.865 5.541-5.602 34.575-41.743 37.346-46.26 5.782-9.036 10.842-18.493 15.48-28.13 0.602-1.386 1.446-2.53 2.048-3.856a270.095 270.095 0 0 0 25.178-113.844A275.215 275.215 0 0 0 454.716 0.482h-0.361A275.275 275.275 0 0 0 179.38 275.396a275.095 275.095 0 0 0 155.648 247.266C161.069 573.44 31.684 732.16 25.9 920.998c-0.06 0.903-0.602 1.686-0.602 2.53 0 0.602 0.301 0.963 0.361 1.445a37.346 37.346 0 0 0 3.735 14.878 37.346 37.346 0 0 0 67.765-0.723 37.888 37.888 0 0 0 2.65-11.264c0.24-1.505 0.903-2.77 0.903-4.336 0-1.506-0.722-2.892-0.903-4.458 0-5.602 0.12-11.083-0.06-16.685-0.181-3.313 0.662-5.963 1.385-8.674h-0.964a356.954 356.954 0 0 1 138.12-242.567c1.385-0.784 2.891-1.326 4.216-2.23a18.854 18.854 0 0 0 0.723 0.663 353.581 353.581 0 0 1 152.998-66.86l2.951-0.483c8.253-1.325 16.565-2.47 25.058-3.192 7.41-0.602 14.939-0.904 22.408-1.084 2.65-0.06 5.18-0.362 7.89-0.362 11.807 0 23.492 0.844 34.937 2.048l0.06-0.3A357.918 357.918 0 0 1 808.96 893.77h-0.964c0.723 2.65 1.566 5.301 1.386 8.614-0.181 5.602 0 11.083 0 16.745-0.302 1.566-0.964 2.892-0.964 4.458 0 1.566 0.602 2.83 0.843 4.276 0.482 3.976 1.145 7.831 2.71 11.264a37.466 37.466 0 0 0 34.154 22.107 37.466 37.466 0 0 0 37.346-36.262c0-0.482 0.241-0.843 0.241-1.385 0-0.904-0.482-1.687-0.542-2.59M252.386 275.336a202.632 202.632 0 0 1 202.21-202.33 202.571 202.571 0 0 1 202.21 202.39 202.632 202.632 0 0 1-202.21 202.39 202.571 202.571 0 0 1-202.21-202.39" p-id="7867"></path><path d="M1227.776 930.033c-5.783-188.898-135.228-347.558-309.128-398.396a274.914 274.914 0 0 0 155.588-247.266A275.275 275.275 0 0 0 800.286 9.638v0.602a35.96 35.96 0 0 0-33.49 35.72c0 18.974 14.817 34.153 33.49 35.659v0.361l2.65 0.18h0.181a202.571 202.571 0 0 1 198.235 202.15c0 102.882-79.692 198.355-179.502 212.631v0.301a45.658 45.658 0 0 0-23.913 11.204 45.719 45.719 0 0 0-14.697 33.43c0 14.216 6.866 26.504 16.926 34.937 7.89 6.626 17.83 11.083 28.913 11.144l-0.181 0.06h0.602a341.41 341.41 0 0 1 24.998 3.253l3.012 0.361a353.641 353.641 0 0 1 152.937 66.982 17.95 17.95 0 0 0 0.723-0.723c1.325 0.964 2.83 1.506 4.216 2.229a357.075 357.075 0 0 1 138.12 242.567h-0.904c0.603 2.77 1.506 5.421 1.386 8.674-0.301 5.602-0.12 11.144-0.12 16.745-0.242 1.567-0.904 2.892-0.904 4.518 0 1.506 0.602 2.831 0.903 4.217 0.422 3.975 1.024 7.83 2.59 11.264a37.647 37.647 0 0 0 34.214 22.166 37.466 37.466 0 0 0 33.611-21.444 37.768 37.768 0 0 0 3.735-14.878c0-0.421 0.301-0.903 0.301-1.325 0-0.964-0.482-1.687-0.602-2.65" p-id="7868"></path><path d="M831.247 590.366h0.301l-0.964-0.12z" p-id="7869"></path></svg>