<?xml version="1.0" standalone="no"?><!DOCTYPE svg PUBLIC "-//W3C//DTD SVG 1.1//EN" "http://www.w3.org/Graphics/SVG/1.1/DTD/svg11.dtd"><svg t="1597220389015" class="icon" viewBox="0 0 1024 1024" version="1.1" xmlns="http://www.w3.org/2000/svg" p-id="2765" width="128" height="128" xmlns:xlink="http://www.w3.org/1999/xlink"><defs><style type="text/css"></style></defs><path d="M853.333333 874.666667a21.333333 21.333333 0 0 1 21.333334 21.333333v21.333333a21.333333 21.333333 0 0 1-21.333334 21.333334H170.666667a21.333333 21.333333 0 0 1-21.333334-21.333334v-21.333333a21.333333 21.333333 0 0 1 21.333334-21.333333h682.666666zM405.312 483.456l-5.546667-3.328A213.205333 213.205333 0 0 1 298.666667 298.666667c0-117.824 95.509333-213.333333 213.333333-213.333334s213.333333 95.509333 213.333333 213.333334a213.248 213.248 0 0 1-106.645333 184.789333L618.666667 576h298.666666a21.333333 21.333333 0 0 1 21.333334 21.333333v192a21.333333 21.333333 0 0 1-21.333334 21.333334H106.666667a21.333333 21.333333 0 0 1-21.333334-21.333334v-192a21.333333 21.333333 0 0 1 21.333334-21.333333h298.666666l-0.021333-92.544zM405.333333 640H149.333333v106.666667h725.333334v-106.666667H554.666667v-198.186667a149.269333 149.269333 0 0 0 64-38.656v4.757334l0.042666-4.778667a149.333333 149.333333 0 1 0-217.685333-4.565333l4.288 4.586666A149.269333 149.269333 0 0 0 469.333333 441.813333V640h-64z" p-id="2766"></path></svg>