<?xml version="1.0" standalone="no"?><!DOCTYPE svg PUBLIC "-//W3C//DTD SVG 1.1//EN" "http://www.w3.org/Graphics/SVG/1.1/DTD/svg11.dtd"><svg t="1596701366788" class="icon" viewBox="0 0 1024 1024" version="1.1" xmlns="http://www.w3.org/2000/svg" p-id="2004" xmlns:xlink="http://www.w3.org/1999/xlink" width="34" height="34"><defs><style type="text/css"></style></defs><path d="M501.208615 0.157538a500.972308 500.972308 0 1 0 0 1002.023385 500.972308 500.972308 0 0 0 0-1001.944615zM701.046154 298.141538c-32.610462 56.32-66.953846 111.773538-100.509539 167.542154l-11.736615 19.456c7.876923 0.393846 13.942154 0.630154 19.849846 1.10277 17.959385 1.339077 36.233846 1.260308 53.799385 4.726153 15.123692 2.914462 21.110154 13.863385 21.188923 29.065847 0 14.729846-7.404308 24.103385-20.952616 28.120615a93.892923 93.892923 0 0 1-25.206153 4.411077c-27.569231 0.551385-55.138462 0.236308-83.810462 0.236308v51.593846c22.212923 0 44.662154-0.236308 67.111385 0a218.190769 218.190769 0 0 1 33.71323 2.284307c20.007385 3.387077 29.144615 13.942154 29.144616 31.507693 0 17.092923-9.294769 28.514462-29.696 30.72-23.788308 2.441846-47.812923 2.126769-71.837539 2.835692-9.373538 0.236308-18.747077 0-28.120615 0-1.339077 20.164923-1.496615 39.148308-4.332308 57.737846-4.568615 30.011077-21.740308 44.032-49.309538 43.244308-16.541538-0.472615-29.696-7.798154-35.367385-23.000616a218.742154 218.742154 0 0 1-9.688615-44.583384c-1.417846-10.24-0.236308-20.716308-0.236308-33.398154H438.744615c-28.514462-0.787692-57.028923-0.630154-85.385846-2.914462-17.486769-1.417846-26.781538-11.027692-29.144615-24.024615-3.150769-18.510769 4.962462-32.374154 23.315692-37.021538 10.24-2.205538 20.48-3.387077 30.956308-3.387077 24.812308-0.472615 49.624615-0.157538 75.460923-0.157539v-51.593846c-27.175385 0-54.350769 0.236308-81.289846-0.157538-8.507077 0-17.092923-1.181538-25.363693-3.387077-16.541538-4.568615-23.630769-14.414769-23.47323-30.404923 0-15.281231 6.774154-24.654769 23.47323-28.672 11.972923-2.363077 24.103385-3.623385 36.233847-3.780923 11.106462-0.630154 22.212923-0.157538 36.076307-0.157539-5.041231-8.192-8.428308-13.863385-11.972923-19.456L307.987692 311.296a209.92 209.92 0 0 1-7.561846-12.918154c-16.856615-30.562462-9.767385-53.720615 21.110154-69.001846h21.740308c17.565538 6.301538 28.041846 20.322462 37.651692 35.367385 37.966769 59.707077 76.169846 119.492923 114.372923 179.278769 2.599385 4.017231 5.513846 7.876923 8.664615 12.839384 3.150769-4.883692 5.513846-8.192 7.561847-11.657846l107.835077-178.569846c9.609846-16.068923 19.849846-31.192615 38.990769-37.179077h21.740307c31.350154 15.832615 38.833231 37.730462 20.873847 68.686769z" fill="#FFA000" p-id="2005"></path></svg>