<?xml version="1.0" standalone="no"?><!DOCTYPE svg PUBLIC "-//W3C//DTD SVG 1.1//EN" "http://www.w3.org/Graphics/SVG/1.1/DTD/svg11.dtd"><svg t="1596701138384" class="icon" viewBox="0 0 1024 1024" version="1.1" xmlns="http://www.w3.org/2000/svg" p-id="3107" width="34" height="34" xmlns:xlink="http://www.w3.org/1999/xlink"><defs><style type="text/css"></style></defs><path d="M108.063 905.089v14.082c0 22.683 15.319 41.052 34.245 41.052h739.386c18.916 0 34.245-18.369 34.245-41.052v-14.082H108.063z m807.86-218.2c0-23.159-15.338-41.909-34.249-41.909H691.643c-76.367-48.493-69.144-110.483-69.144-110.483-2.955-33.558 63.865-115.775 63.865-115.775 30.953-37.42 49.466-84.849 49.466-136.441 0-117.116-95.37-212.728-215.271-218.505h-17.068C383.576 69.53 288.216 165.165 288.216 282.281c-0.085 49.587 17.369 97.72 49.474 136.441 0 0 66.816 82.217 63.865 115.775 0 0 7.227 61.989-69.148 110.483h-190.1c-18.925 0-34.245 18.75-34.245 41.909v153.096l807.861-1.377V686.889zM499.506 644.98l12.496-0.032 12.499 0.032h-24.995z" p-id="3108" fill="#005BFF"></path></svg>