<?xml version="1.0" standalone="no"?><!DOCTYPE svg PUBLIC "-//W3C//DTD SVG 1.1//EN" "http://www.w3.org/Graphics/SVG/1.1/DTD/svg11.dtd"><svg t="1597742199959" class="icon" viewBox="0 0 1024 1024" version="1.1" xmlns="http://www.w3.org/2000/svg" p-id="9842" xmlns:xlink="http://www.w3.org/1999/xlink" width="128" height="128"><defs><style type="text/css"></style></defs><path d="M876.629 132.139c-6.016-4.438-13.93-5.376-20.8-2.518L93.739 445.632c-7.936 3.285-13.12 11.008-13.163 19.584-0.043 8.576 5.035 16.363 12.928 19.733l248.661 106.56 26.646 266.283c0.875 8.619 6.869 15.872 15.168 18.325 2.006 0.576 4.032 0.875 6.059 0.875 6.379 0 12.544-2.858 16.662-8l138.197-172.736 251.882 118.699c6.337 3.008 13.675 2.709 19.712-0.79 6.038-3.456 10.027-9.643 10.646-16.576l58.112-646.335C885.909 143.808 882.646 136.555 876.629 132.139zM383.36 574.72c-0.064-0.618-0.32-1.194-0.427-1.792l390.549-338.965-337.515 375.04-33.685 154.901L383.36 574.72zM453.291 629.718l64.405 32.191L419.648 784.47 453.291 629.718z" p-id="9843"></path></svg>