<?xml version="1.0" standalone="no"?><!DOCTYPE svg PUBLIC "-//W3C//DTD SVG 1.1//EN" "http://www.w3.org/Graphics/SVG/1.1/DTD/svg11.dtd"><svg t="1596717484113" class="icon" viewBox="0 0 1024 1024" version="1.1" xmlns="http://www.w3.org/2000/svg" p-id="7038" width="128" height="128" xmlns:xlink="http://www.w3.org/1999/xlink"><defs><style type="text/css"></style></defs><path d="M511.754652 75.044851c-7.758304 0-15.359078 2.126642-21.935915 6.183014L135.142172 298.932956a39.894222 39.894222 0 0 0-19.494215 36.074144c0.236294 7.049423 2.953669 24.574526 21.975297 34.616999l354.637183 185.372263a42.375304 42.375304 0 0 0 38.909666 0l355.149152-185.372263c19.06101-9.924328 21.778386-27.567577 21.975297-34.656382 0.275676-7.049423-1.142085-24.810819-19.454833-36.034761l-355.227917-217.705091a42.178392 42.178392 0 0 0-21.85715-6.183014z m0 559.700572c-19.139775 0-38.358314-4.647106-55.292682-13.586877l-354.597801-185.372262A114.405443 114.405443 0 0 1 39.522063 337.488181a114.208532 114.208532 0 0 1 55.292682-102.196945L449.412546 17.586145a119.013167 119.013167 0 0 1 124.526683 0l355.227917 217.705091a114.011621 114.011621 0 0 1 55.332064 102.196945 114.247914 114.247914 0 0 1-62.42087 98.298103l-355.227917 185.372262a118.54058 118.54058 0 0 1-55.135153 13.586877zM511.833417 1023.999606c-18.824717 0-37.649433-4.410812-54.938243-13.271819l-352.31363-181.31589a36.113525 36.113525 0 0 1-15.752901-49.582256 38.555225 38.555225 0 0 1 51.275693-15.201549l352.353012 181.276508c12.129734 6.30116 26.504256 6.30116 38.673372 0l352.864982-181.276508a38.555225 38.555225 0 0 1 51.275693 15.201549 36.113525 36.113525 0 0 1-15.713519 49.621638l-352.943746 181.276508a119.091931 119.091931 0 0 1-54.741331 13.271819z m-7.640157-197.22632c-18.745952 0-37.491904-4.607724-54.741331-13.901935l-351.171545-189.822457a38.712754 38.712754 0 0 1-15.674137-51.945191 37.491904 37.491904 0 0 1 51.118164-15.91043l351.171545 189.822457c12.090352 6.576836 26.386109 6.576836 38.515843 0l351.722896-189.822457a37.452522 37.452522 0 0 1 51.078782 15.91043 38.752136 38.752136 0 0 1-15.634754 51.945191l-351.762279 189.979986c-17.052515 9.254829-35.83785 13.783788-54.623184 13.783788z" p-id="7039"></path></svg>