<?xml version="1.0" standalone="no"?><!DOCTYPE svg PUBLIC "-//W3C//DTD SVG 1.1//EN" "http://www.w3.org/Graphics/SVG/1.1/DTD/svg11.dtd"><svg t="1597200096618" class="icon" viewBox="0 0 1024 1024" version="1.1" xmlns="http://www.w3.org/2000/svg" p-id="2734" width="128" height="128" xmlns:xlink="http://www.w3.org/1999/xlink"><defs><style type="text/css"></style></defs><path d="M426.006038 149.616426c-36.193281-36.191234-84.313183-56.123172-135.496862-56.123172S191.205595 113.425192 155.011291 149.61745c-74.712534 74.712534-74.712534 196.279142 0 270.991676 28.140892 28.141916 79.023719 46.997337 155.55569 57.642781 56.032098 7.793492 110.691944 8.95699 138.287415 8.95699 8.499573 0 13.468743-0.116657 13.67545-0.121773 16.375953-0.393972 29.55817-13.575166 29.952143-29.951119 0.056282-2.348485 1.308807-58.244484-5.33142-122.84881-9.521855-92.642887-29.522354-153.049615-61.144531-184.670769zM319.026645 417.43995c-81.211545-11.296266-110.417698-30.063683-120.598562-40.244546-50.773333-50.774356-50.773333-133.389876 0-184.162186 24.597187-24.596163 57.29895-38.140631 92.082117-38.14063s67.485953 13.544467 92.082116 38.14063c19.99743 19.996406 35.822844 73.544943 43.418838 146.915925 3.414769 32.983172 4.626363 64.062997 5.019312 85.689528-26.557839-0.48914-69.354508-2.267644-112.003821-8.198721zM462.531893 543.748555c-0.207731-0.004093-5.170761-0.121773-13.677497-0.121774-27.595471 0-82.257363 1.163498-138.293555 8.958014-76.527878 10.646467-127.407634 29.499842-155.548526 57.640734-74.712534 74.712534-74.712534 196.280166 0.001023 270.993723 36.192257 36.191234 84.31216 56.124196 135.495838 56.124196s99.303581-19.932962 135.497885-56.124196c31.621153-31.622177 51.621653-92.029928 61.143508-184.672815 6.640227-64.604326 5.388725-120.498278 5.33142-122.846763-0.393972-16.374929-13.575166-29.557147-29.950096-29.951119z m-36.520739 147.137981c-7.597018 73.369958-23.422432 126.919518-43.418838 146.915924-24.596163 24.597187-57.29895 38.141654-92.082116 38.141654s-67.48493-13.544467-92.08007-38.139607c-50.774356-50.77538-50.774356-133.391923-0.001023-184.165256 10.180863-10.180863 39.383946-28.944187 120.592421-40.242499 42.652383-5.9321 85.451099-7.710604 112.009962-8.200768-0.393972 21.627555-1.605566 52.706356-5.020336 85.690552zM722.58546 552.584795c-56.032098-7.794516-110.692967-8.958014-138.290484-8.958014-8.505713 0-13.476929 0.11768-13.683637 0.121774-16.375953 0.393972-29.55817 13.577213-29.952143 29.952142-0.056282 2.348485-1.306761 58.244484 5.332444 122.846763 9.523901 92.642887 29.523378 153.049615 61.143507 184.672815 36.192257 36.191234 84.313183 56.124196 135.495839 56.124196 51.185725 0 99.305627-19.932962 135.497884-56.126242 74.713557-74.713557 74.713557-196.281189 0-270.991677-28.138846-28.141916-79.017579-46.997337-155.54341-57.641757z m112.130712 285.217665c-24.596163 24.59514-57.29895 38.141654-92.08314 38.141654-34.783166 0-67.483906-13.544467-92.079046-38.139607-19.99743-19.998453-35.823868-73.548013-43.419862-146.917971-3.414769-32.983172-4.627386-64.062997-5.019312-85.689529 26.557839 0.490163 69.360648 2.268668 112.013031 8.200768 81.204382 11.296266 110.408489 30.061636 120.589352 40.242499 50.77231 50.773333 50.77231 133.386806-0.001023 184.162186zM570.611339 487.085077c0.207731 0.005117 5.171784 0.121773 13.67852 0.121774 27.595471 0 82.25634-1.163498 138.292532-8.958014 76.527878-10.645444 127.408658-29.499842 155.547503-57.638687 36.193281-36.192257 56.126242-84.313183 56.126242-135.496862s-19.932962-99.305627-56.126242-135.497885c-36.192257-36.192257-84.311137-56.124196-135.495839-56.124196s-99.304604 19.931938-135.497884 56.124196c-31.621153 31.621153-51.621653 92.028904-61.143508 184.671792-6.641251 64.604326-5.388725 120.499301-5.332443 122.847786 0.393972 16.374929 13.57619 29.556123 29.951119 29.950096z m36.457293-146.519905c7.574505-73.701509 23.424479-127.475172 43.482284-147.534 24.596163-24.596163 57.29895-38.140631 92.083139-38.140631 34.783166 0 67.48493 13.544467 92.08007 38.139608 24.596163 24.597187 38.141654 57.29895 38.141654 92.083139 0 34.783166-13.545491 67.48493-38.141654 92.081093-10.17984 10.17984-39.382923 28.944187-120.591398 40.241476-42.6575 5.933123-85.458262 7.710604-112.017125 8.201791 0.389879-21.456663 1.589193-52.243822 4.96303-85.072476z" p-id="2735"></path></svg>