<?xml version="1.0" standalone="no"?><!DOCTYPE svg PUBLIC "-//W3C//DTD SVG 1.1//EN" "http://www.w3.org/Graphics/SVG/1.1/DTD/svg11.dtd"><svg t="1596701593186" class="icon" viewBox="0 0 1024 1024" version="1.1" xmlns="http://www.w3.org/2000/svg" p-id="6086" xmlns:xlink="http://www.w3.org/1999/xlink" width="34" height="34"><defs><style type="text/css"></style></defs><path d="M786.096844 285.711303v117.624739l134.79724-204.824569L786.096844 0.000999v111.272692S364.528627 62.459803 309.79615 534.801454h29.011678C510.069417 205.882245 786.096844 285.711303 786.096844 285.711303M817.540478 661.952267c-4.390503-13.408214-22.583726-24.268617-40.775951-24.268617H118.381792c-18.192224 0-29.328282 10.860403-25.015682 24.268617l109.939361 337.739166c4.390503 13.410211 22.662627 24.308567 40.776949 24.308567h658.383735c18.114322 0 29.326285-10.898356 24.935781-24.308567L817.540478 661.952267z" fill="#837AFF" p-id="6087"></path><path d="M880.666447 427.525758H708.30923c-37.719777-2.352055-59.283779 58.85232-70.339938 107.196794H338.808827c-7.840184 15.094103-15.446662 30.973223-22.896335 47.794164-4.783012 10.900353-7.528575-35.445624-6.037441-47.24585v-0.549312h-69.557917c-18.192224 0-32.854867 14.703592-32.854867 32.854867v37.248367h569.301261c15.682366 0 29.877595 4.312601 42.344987 11.723323 12.231687 7.449673 23.760253 18.073373 29.641889 35.16897l82.808328 254.61823V501.474178c0.000999 0-3.293876-73.94842-50.892285-73.94842" fill="#837AFF" p-id="6088"></path></svg>