<?xml version="1.0" standalone="no"?><!DOCTYPE svg PUBLIC "-//W3C//DTD SVG 1.1//EN" "http://www.w3.org/Graphics/SVG/1.1/DTD/svg11.dtd"><svg t="1596701481237" class="icon" viewBox="0 0 1024 1024" version="1.1" xmlns="http://www.w3.org/2000/svg" p-id="5275" xmlns:xlink="http://www.w3.org/1999/xlink" width="34" height="34"><defs><style type="text/css"></style></defs><path d="M832 128c70.656 0 128 57.344 128 128v384c0 70.656-57.344 128-128 128H570.048l-149.44 115.072c-11.2 8.576-24.576 12.992-38.08 12.992-9.408 0-18.88-2.176-27.776-6.464-21.504-10.624-34.944-32.192-34.944-56.192V768H192c-70.656 0-128-57.344-128-128V256c0-70.656 57.344-128 128-128h640zM320 384c-35.392 0-64 28.608-64 64 0 35.392 28.608 64 64 64 35.392 0 64-28.608 64-64 0-35.392-28.608-64-64-64z m192 0c-35.392 0-64 28.608-64 64 0 35.392 28.608 64 64 64 35.392 0 64-28.608 64-64 0-35.392-28.608-64-64-64z m192 0c-35.392 0-64 28.608-64 64 0 35.392 28.608 64 64 64 35.392 0 64-28.608 64-64 0-35.392-28.608-64-64-64z" p-id="5276" fill="#438FED"></path></svg>