<?xml version="1.0" standalone="no"?><!DOCTYPE svg PUBLIC "-//W3C//DTD SVG 1.1//EN" "http://www.w3.org/Graphics/SVG/1.1/DTD/svg11.dtd"><svg t="1597739785133" class="icon" viewBox="0 0 1341 1024" version="1.1" xmlns="http://www.w3.org/2000/svg" p-id="8931" width="167.625" height="128" xmlns:xlink="http://www.w3.org/1999/xlink"><defs><style type="text/css"></style></defs><path d="M1244.901517 160.838621V89.441103H96.891586v79.165794l556.950069 379.550896c1.024 0.706207 2.189241 0.706207 3.354483-0.105931L1240.381793 163.416276c1.412414-0.953379 2.966069-1.765517 4.519724-2.542345v-0.03531z m0 97.844965L702.746483 616.200828a84.603586 84.603586 0 0 1-95.055449-0.282483L96.891586 267.828966v641.588965h1148.009931V258.648276zM96.891586 7.415172h1148.009931a81.990621 81.990621 0 0 1 81.990621 81.990621v819.976828a81.990621 81.990621 0 0 1-81.990621 81.99062H96.891586a81.990621 81.990621 0 0 1-81.99062-81.99062V89.370483A81.990621 81.990621 0 0 1 96.891586 7.379862z" fill="#2786DF" p-id="8932"></path></svg>