<?xml version="1.0" standalone="no"?><!DOCTYPE svg PUBLIC "-//W3C//DTD SVG 1.1//EN" "http://www.w3.org/Graphics/SVG/1.1/DTD/svg11.dtd"><svg t="1597371546731" class="icon" viewBox="0 0 1024 1024" version="1.1" xmlns="http://www.w3.org/2000/svg" p-id="3962" width="128" height="128" xmlns:xlink="http://www.w3.org/1999/xlink"><defs><style type="text/css"></style></defs><path d="M569.490286 974.336c-15.286857 0.073143-30.281143-3.657143-43.739429-10.825143l-119.076571-66.340571a89.6 89.6 0 0 1-47.323429-79.725715V439.149714a18.724571 18.724571 0 0 0-7.241143-14.336L76.8 203.849143l-3.072-3.657143a88.064 88.064 0 0 1-17.261714-97.572571C70.436571 69.485714 103.277714 48.128 139.190857 48.786286H882.102857c35.84 0 68.169143 20.918857 83.309714 53.833143 14.628571 32.768 8.338286 71.387429-16.237714 97.572571l-3.657143 3.657143L666.624 427.154286a19.090286 19.090286 0 0 0-6.582857 14.336v441.782857a89.746286 89.746286 0 0 1-88.429714 91.062857H569.490286zM123.977143 150.016l274.285714 219.136c21.577143 17.261714 34.230857 43.008 34.230857 70.509714v378.441143c0 6.582857 2.925714 13.165714 8.923429 16.237714l119.076571 65.243429c5.851429 2.925714 12.726857 2.925714 18.578286 0a18.870857 18.870857 0 0 0 8.923429-16.237714V442.075429c0-27.428571 11.922286-53.248 33.499428-70.582858l274.870857-221.476571a18.505143 18.505143 0 0 0-14.409143-29.476571H138.971429a17.115429 17.115429 0 0 0-16.091429 10.24 18.285714 18.285714 0 0 0 1.097143 19.163428l-0.073143 0.073143z m812.470857 375.954286h-204.141714C712.411429 525.897143 696.32 509.805714 696.32 490.057143c0-19.894857 16.237714-35.986286 35.84-35.986286h204.214857a36.132571 36.132571 0 0 1 25.673143 61.44 35.254857 35.254857 0 0 1-25.6 10.386286z m0 135.314285h-204.141714a35.986286 35.986286 0 0 1 0-71.826285h204.068571a36.059429 36.059429 0 0 1 25.673143 61.44 35.254857 35.254857 0 0 1-25.6 10.24v0.146285z m0 134.582858h-204.141714c-19.821714 0-35.913143-16.091429-35.986286-35.84 0-19.748571 16.237714-35.986286 35.84-35.986286h204.214857c19.748571 0 36.059429 16.164571 36.059429 35.913143a35.547429 35.547429 0 0 1-35.986286 35.84z" fill="#ffffff" p-id="3963"></path></svg>