<?xml version="1.0" standalone="no"?><!DOCTYPE svg PUBLIC "-//W3C//DTD SVG 1.1//EN" "http://www.w3.org/Graphics/SVG/1.1/DTD/svg11.dtd"><svg t="1596681677134" class="icon" viewBox="0 0 1024 1024" version="1.1" xmlns="http://www.w3.org/2000/svg" p-id="2321" width="20" height="20" xmlns:xlink="http://www.w3.org/1999/xlink"><defs><style type="text/css"></style></defs><path d="M197.063 881.55c-27.307 0-50.973-21.845-50.973-50.973v-553.415c0-27.307 21.845-50.973 50.973-50.973h116.509c18.205 0 34.589 10.923 41.87 29.127s1.821 36.409-12.743 49.152l-16.384 14.563h-87.381v471.495h496.981v-109.227l12.743-9.102c9.102-5.461 18.205-9.102 29.127-9.102 27.307 0 50.973 21.845 50.973 50.973v120.149c0 27.307-21.845 50.973-50.973 50.973h-580.722v-3.641zM637.611 464.669c-29.127 0-54.613 1.821-74.638 3.641-5.461 0-10.923 0-14.563 1.821-10.923 0-16.384 1.821-40.050 7.282-30.947 7.282-60.075 20.025-87.381 38.229-5.461 3.641-10.923 7.282-18.205 10.923-27.307 16.384-65.536 40.050-83.741 61.895-5.461 7.282-12.743 10.923-20.025 10.923h-5.461c-10.923-1.821-18.205-10.923-18.205-21.845v-3.641c10.923-56.434 25.486-103.765 43.691-141.995s40.050-72.818 69.177-101.945c29.127-29.127 65.536-50.973 109.227-65.536 40.050-12.743 85.561-18.205 140.174-20.025v-149.277l294.912 258.503-294.912 258.503v-147.456z" p-id="2322" fill="#FFFFFF"></path></svg>