<?xml version="1.0" standalone="no"?><!DOCTYPE svg PUBLIC "-//W3C//DTD SVG 1.1//EN" "http://www.w3.org/Graphics/SVG/1.1/DTD/svg11.dtd"><svg t="1596697049945" class="icon" viewBox="0 0 1024 1024" version="1.1" xmlns="http://www.w3.org/2000/svg" p-id="4731" width="30" height="30" xmlns:xlink="http://www.w3.org/1999/xlink"><defs><style type="text/css"></style></defs><path d="M857.510706 5.425627l4.049315 3.582962a22.237109 22.237109 0 0 1 0 35.829613l-191.387008 189.385099H921.332916a98.95798 98.95798 0 0 1 101.812974 87.174018l0.55735 7.677775v520.803336a98.787363 98.787363 0 0 1-94.647052 94.692549l-7.723272 0.102371-69.463952-0.102371 0.10237 3.127982v50.673311a22.510097 22.510097 0 0 1-25.592581 25.342342h-51.185162a22.510097 22.510097 0 0 1-25.592581-25.342342v-50.673311l0.159243-3.071109h-486.827763l0.10237 3.127982v50.67331a22.510097 22.510097 0 0 1-25.592581 25.342343h-51.185162a22.510097 22.510097 0 0 1-25.592581-25.342343v-50.730183l0.147868-3.071109H102.370324a98.95798 98.95798 0 0 1-101.8016-87.083022L0 849.87843v-520.951205a98.787363 98.787363 0 0 1 94.647052-94.703924h231.368306L196.710265 106.203524a21.611513 21.611513 0 0 1-3.582962-31.848545l3.582962-3.992443a22.748961 22.748961 0 0 1 36.193597 0l165.521439 163.860765H597.842692l0.409481-0.352609L825.366424 9.008589a22.146113 22.146113 0 0 1 32.144282-3.639834zM441.727948 456.366904a25.342342 25.342342 0 0 0-12.910035 17.971679l-0.352609 4.549793v219.993826a25.194474 25.194474 0 0 0 13.467385 22.168862 25.854194 25.854194 0 0 0 22.066492 1.023703l4.094813-2.206649 167.113866-110.400707a25.28547 25.28547 0 0 0 3.787702-38.388871l-3.787702-3.17348-167.113866-110.45758a25.797322 25.797322 0 0 0-26.366046-1.023703z" p-id="4732" fill="#FF7E00"></path></svg>