<?xml version="1.0" standalone="no"?><!DOCTYPE svg PUBLIC "-//W3C//DTD SVG 1.1//EN" "http://www.w3.org/Graphics/SVG/1.1/DTD/svg11.dtd"><svg t="1598235410144" class="icon" viewBox="0 0 1024 1024" version="1.1" xmlns="http://www.w3.org/2000/svg" p-id="2128" width="128" height="128" xmlns:xlink="http://www.w3.org/1999/xlink"><defs><style type="text/css"></style></defs><path d="M552.96 76.8c-15.36-6.826667-34.133333-5.12-47.786667 6.826667l-256 209.92h-204.8c-23.893333 0-44.373333 18.773333-44.373333 44.373333v349.866667c0 23.893333 20.48 44.373333 44.373333 44.373333h206.506667l254.293333 209.92c13.653333 10.24 32.426667 13.653333 47.786667 6.826667 15.36-6.826667 25.6-22.186667 25.6-39.253334V116.053333c0-17.066667-10.24-32.426667-25.6-39.253333z m172.373333 220.16c-22.186667-10.24-47.786667-1.706667-58.026666 20.48-10.24 22.186667-1.706667 47.786667 20.48 58.026667 3.413333 1.706667 69.973333 35.84 69.973333 133.12 0 104.106667-63.146667 138.24-64.853333 139.946666-10.24 5.12-18.773333 13.653333-22.186667 25.6-3.413333 10.24-3.413333 23.893333 1.706667 34.133334 11.946667 22.186667 37.546667 30.72 59.733333 20.48 5.12-1.706667 114.346667-58.026667 114.346667-218.453334-1.706667-157.013333-116.053333-211.626667-121.173334-213.333333z m138.24-129.706667c-20.48-13.653333-47.786667-6.826667-61.44 13.653334-6.826667 10.24-8.533333 22.186667-6.826666 32.426666 1.706667 11.946667 10.24 20.48 18.773333 27.306667 5.12 3.413333 119.466667 80.213333 119.466667 269.653333 0 191.146667-109.226667 267.946667-114.346667 271.36-13.653333 8.533333-22.186667 23.893333-20.48 39.253334 1.706667 15.36 10.24 30.72 25.6 37.546666 15.36 6.826667 32.426667 5.12 44.373333-3.413333 6.826667-3.413333 153.6-104.106667 153.6-343.04 1.706667-240.64-151.893333-339.626667-158.72-344.746667z m0 0" p-id="2129" fill="#ffffff"></path></svg>