<?xml version="1.0" standalone="no"?><!DOCTYPE svg PUBLIC "-//W3C//DTD SVG 1.1//EN" "http://www.w3.org/Graphics/SVG/1.1/DTD/svg11.dtd"><svg t="1600397037274" class="icon" viewBox="0 0 1024 1024" version="1.1" xmlns="http://www.w3.org/2000/svg" p-id="7401" xmlns:xlink="http://www.w3.org/1999/xlink" width="128" height="128"><defs><style type="text/css"></style></defs><path d="M105.848832 347.71968h97.366016v220.140544h-97.366016V347.71968z m153.971712-29.331456s338.880512-12.387328 516.601856-224.062464c0 0 152.045568-36.323328 140.432384 362.30656 0 0 16.173056 274.507776-139.022336 313.142272 0 0-116.486144-151.081984-517.946368-169.440256l-0.065536-281.946112z m63.09376 348.50816s14.24384 129.262592 119.053312 264.558592c0 0 91.077632 4.03968 104.808448-33.57184 0 0 9.696256-24.900608-19.31776-56.992768-9.304064-14.758912-91.84256-84.463616-105.32352-173.993984h-99.22048z m0 0" p-id="7402" fill="#F8E71C"></path></svg>