<?xml version="1.0" standalone="no"?><!DOCTYPE svg PUBLIC "-//W3C//DTD SVG 1.1//EN" "http://www.w3.org/Graphics/SVG/1.1/DTD/svg11.dtd"><svg t="1600051087479" class="icon" viewBox="0 0 1024 1024" version="1.1" xmlns="http://www.w3.org/2000/svg" p-id="7786" xmlns:xlink="http://www.w3.org/1999/xlink" width="128" height="128"><defs><style type="text/css"></style></defs><path d="M512 26.947368c267.883789 0 485.052632 217.168842 485.052632 485.052632s-217.168842 485.052632-485.052632 485.052632S26.947368 779.883789 26.947368 512 244.116211 26.947368 512 26.947368z m97.010526 300.274527c-22.177684 0-41.606737 19.348211-41.606737 41.498947V673.145263c0 22.096842 19.402105 41.472 41.57979 41.472s41.606737-19.348211 41.606737-41.498947V368.747789c0-22.150737-19.402105-41.498947-41.57979-41.498947z m-194.021052 0c-22.177684 0-41.579789 19.348211-41.57979 41.498947V673.145263c0 22.096842 19.402105 41.472 41.57979 41.472s41.606737-19.348211 41.606737-41.498947V368.747789c-0.026947-22.150737-19.429053-41.498947-41.57979-41.498947H414.989474z" p-id="7787"></path></svg>