<?xml version="1.0" standalone="no"?><!DOCTYPE svg PUBLIC "-//W3C//DTD SVG 1.1//EN" "http://www.w3.org/Graphics/SVG/1.1/DTD/svg11.dtd"><svg t="1597735318329" class="icon" viewBox="0 0 1024 1024" version="1.1" xmlns="http://www.w3.org/2000/svg" p-id="7947" width="240" height="240" xmlns:xlink="http://www.w3.org/1999/xlink"><defs><style type="text/css"></style></defs><path d="M272.24 551.71a7.3 7.3 0 0 1-0.58-9.13l22.39-30.45a5.85 5.85 0 0 1 8.19-1.28l0.12 0.09L438.17 615a7.91 7.91 0 0 0 9.35-0.23l331.67-276.31a6.8 6.8 0 0 1 8.87 0.33l21 20.78a5.83 5.83 0 0 1 0.07 8.25l-0.13 0.18-361.81 356.11a5.89 5.89 0 0 1-8.33 0l-0.11-0.11-166.52-172.33zM1022 518.3C1024 235.14 796 4 512.87 2h-7.17C230.3 2 2 230.34 2 518.3 2 793.7 230.32 1022 505.7 1022c287.97 0 516.3-228.33 516.3-503.7z" fill="#63D40A" p-id="7948"></path></svg>