<?xml version="1.0" standalone="no"?><!DOCTYPE svg PUBLIC "-//W3C//DTD SVG 1.1//EN" "http://www.w3.org/Graphics/SVG/1.1/DTD/svg11.dtd"><svg t="1597905199163" class="icon" viewBox="0 0 1024 1024" version="1.1" xmlns="http://www.w3.org/2000/svg" p-id="5876" width="128" height="128" xmlns:xlink="http://www.w3.org/1999/xlink"><defs><style type="text/css"></style></defs><path d="M512 0C229.2224 0 0 229.2736 0 512c0 282.7776 229.2224 512 512 512s512-229.2224 512-512c0-282.7264-229.2224-512-512-512z m-28.2112 745.6768l-30.8224 29.7472a145.408 145.408 0 0 1-101.376 40.6016 145.408 145.408 0 0 1-101.4272-40.5504 136.0384 136.0384 0 0 1 0-197.0688l113.2032-109.568c70.4-68.096 151.2448-77.8752 205.9776-24.9344 14.7456 14.2848 14.848 37.5296 0.2048 51.9168a38.4 38.4 0 0 1-53.2992 0.2048c-32.2048-31.1296-76.288 2.304-99.84 24.9856l-113.2032 109.568a64.1024 64.1024 0 0 0 0 92.7232 70.144 70.144 0 0 0 96.7168 0l30.72-29.7984a38.4 38.4 0 0 1 53.2992 0.2048 36.096 36.096 0 0 1-0.1536 51.968z m290.048-280.6784l-120.832 116.8384c-37.2736 36.1472-76.544 54.3744-113.664 54.3744-30.3616 0-59.2896-12.1344-84.6848-36.7104a36.0448 36.0448 0 0 1-0.2048-51.968 38.4 38.4 0 0 1 53.2992-0.1536c11.0592 10.7008 36.9664 35.84 92.16-17.664l120.8832-116.8384a64.2048 64.2048 0 0 0 0-92.7744c-24.064-23.296-60.928-34.6112-89.1392-7.3216l-38.4 37.12a38.4 38.4 0 0 1-53.248-0.2048 36.0448 36.0448 0 0 1 0.2048-51.968l38.4-37.12c54.3232-52.5824 136.4992-49.5104 195.2256 7.3216a136.192 136.192 0 0 1 0 197.0688z" p-id="5877"></path></svg>