<?xml version="1.0" standalone="no"?><!DOCTYPE svg PUBLIC "-//W3C//DTD SVG 1.1//EN" "http://www.w3.org/Graphics/SVG/1.1/DTD/svg11.dtd"><svg t="1597904489853" class="icon" viewBox="0 0 1024 1024" version="1.1" xmlns="http://www.w3.org/2000/svg" p-id="4465" xmlns:xlink="http://www.w3.org/1999/xlink" width="128" height="128"><defs><style type="text/css"></style></defs><path d="M670.462 458.167c14.993 0 27.097 12.004 27.097 26.875v87.791c0 45.777-18.155 88.867-50.942 121.475-32.787 32.609-76.323 50.525-122.478 50.525-46.154 0-89.6-18.006-122.477-50.525-32.877-32.518-50.942-75.698-50.942-121.475v-87.791c0-14.871 12.103-26.875 27.097-26.875 14.993 0 27.097 12.004 27.097 26.875v87.791c0 31.444 12.464 61.096 35.045 83.492 22.58 22.396 52.477 34.758 84.18 34.758 31.704 0 61.6-12.362 84.181-34.758 22.58-22.396 35.045-52.048 35.045-83.492v-87.791c0-14.871 12.103-26.875 27.097-26.875zM907.32 334.308L960 845.6v1.3c0 42.535-35.353 77.1-78.933 77.1H142.933C99.44 924 64 889.435 64 846.9v-1.3l52.768-511.292c0.787-41.842 35.878-75.628 78.932-75.628h24.328L392.682 87.845c32.028-31.793 84.183-31.793 116.299 0L681.548 258.68h48.217L594.302 124.576l-0.088-0.086-1.75-1.733c-23.89-23.65 10.764-60.295 35.879-37.857 1.05 0.952 2.1 1.905 3.15 2.945L804.06 258.68h24.327c43.054 0 78.145 33.786 78.933 75.628zM429.786 124.576L294.322 258.593h312.931l-95.21-94.254-37.103-36.73-3.063-3.033c-11.638-11.522-30.453-11.522-42.091 0z m451.369 747.446c14.176 0 25.815-10.656 26.427-23.997l-52.855-510.858v-1.3c0-13.86-11.813-25.122-26.427-25.122H195.613c-14.527 0-26.428 11.261-26.428 25.122v1.3l-52.68 510.858c0.613 13.341 12.251 23.997 26.428 23.997h738.222z" p-id="4466"></path></svg>