<?xml version="1.0" standalone="no"?><!DOCTYPE svg PUBLIC "-//W3C//DTD SVG 1.1//EN" "http://www.w3.org/Graphics/SVG/1.1/DTD/svg11.dtd"><svg t="1602229998431" class="icon" viewBox="0 0 1024 1024" version="1.1" xmlns="http://www.w3.org/2000/svg" p-id="5756" xmlns:xlink="http://www.w3.org/1999/xlink" width="128" height="128"><defs><style type="text/css"></style></defs><path d="M512 0c282.773333 0 512 229.226667 512 512S794.773333 1024 512 1024 0 794.773333 0 512 229.226667 0 512 0z m-108.650667 205.162667c-24.469333-4.16-45.098667 4.181333-77.290666 25.045333l-9.173334 5.952-8.384 5.269333c-63.701333 39.381333-36.8 201.6 67.114667 353.749334 103.637333 151.744 247.765333 240.533333 310.613333 201.749333 3.989333-2.432 19.541333-11.52 21.312-12.586667 27.008-16.064 42.176-29.12 50.026667-48.042666 10.581333-25.301333 2.474667-53.696-24.896-85.696-44.266667-51.754667-77.781333-63.978667-115.690667-46.677334a158.293333 158.293333 0 0 0-17.365333 9.344l-16.768 10.389334c-12.736 7.850667-51.648-29.397333-98.261333-97.472-45.973333-67.306667-65.728-115.754667-54.08-122.986667 1.130667-0.704 13.312-8.085333 16.746666-10.282667 47.658667-29.973333 55.808-62.997333 18.773334-132.608-17.493333-32.896-38.272-50.965333-62.677334-55.146666z" p-id="5757"></path></svg>