<?xml version="1.0" standalone="no"?><!DOCTYPE svg PUBLIC "-//W3C//DTD SVG 1.1//EN" "http://www.w3.org/Graphics/SVG/1.1/DTD/svg11.dtd"><svg t="1597987897412" class="icon" viewBox="0 0 1024 1024" version="1.1" xmlns="http://www.w3.org/2000/svg" p-id="2112" xmlns:xlink="http://www.w3.org/1999/xlink" width="128" height="128"><defs><style type="text/css"></style></defs><path d="M771.072 1003.008c-14.336 0-30.72-4.096-45.568-11.776L512 884.224l-215.04 106.496c-13.824 7.168-29.184 11.264-45.056 11.264-20.48 0-40.96-6.656-57.344-18.944-30.208-22.528-45.568-61.44-38.4-97.28l44.032-227.84L32.256 501.248c-26.112-26.112-35.84-64.512-26.112-100.352l0.512-1.024c12.288-36.864 42.496-62.464 79.36-67.584l233.984-42.496L424.96 76.288c16.896-33.792 51.2-55.296 87.552-55.296 37.888 0 73.216 22.528 88.064 56.32l104.448 212.48 233.984 40.96c37.376 5.632 67.584 32.256 77.824 68.096 11.776 35.328 2.048 74.24-24.576 100.864l-0.512 0.512-167.936 158.208 42.496 228.352c6.656 36.352-7.68 73.216-37.888 96.256-16.384 12.8-36.352 19.968-57.344 19.968zM512.512 803.84l224.256 112.128c6.656 3.072 14.336 5.632 19.456 5.632 8.192 0 15.36-2.56 20.992-7.168l1.024-1.024c12.8-9.728 18.944-24.576 16.384-39.424l-45.056-243.2 178.688-167.936c10.752-11.264 14.848-27.136 9.728-41.472l-0.512-1.536c-4.096-14.336-15.872-24.576-30.72-26.624h-1.024l-246.784-43.008L547.84 124.416c-5.632-12.8-19.968-22.016-34.816-22.016-14.336 0-28.672 9.216-35.328 23.04L366.592 349.696l-248.32 45.056c-14.848 2.048-26.624 11.776-32.256 27.648-3.584 14.336 0.512 31.232 11.264 41.984l178.688 166.4-47.104 243.2c-3.072 13.824 4.096 30.208 16.384 39.424 6.144 4.608 14.336 7.168 22.528 7.168 6.656 0 12.8-1.536 17.92-4.608l1.024-0.512 225.792-111.616z" p-id="2113" fill="#2786DF"></path></svg>