<?xml version="1.0" standalone="no"?><!DOCTYPE svg PUBLIC "-//W3C//DTD SVG 1.1//EN" "http://www.w3.org/Graphics/SVG/1.1/DTD/svg11.dtd"><svg t="1597731214642" class="icon" viewBox="0 0 1024 1024" version="1.1" xmlns="http://www.w3.org/2000/svg" p-id="4505" xmlns:xlink="http://www.w3.org/1999/xlink" width="128" height="128"><defs><style type="text/css"></style></defs><path d="M508.595 1022.297c-64.695 0-124.283-8.512-175.358-25.537s-95.34-39.158-131.092-66.398c-35.753-27.24-66.398-57.885-86.828-91.935-20.43-34.05-35.752-69.802-42.562-103.852-8.513-37.455-8.513-74.91-3.405-110.663 5.107-34.05 15.322-66.397 30.645-97.042 15.322-30.645 32.347-57.885 54.48-83.423 20.43-23.835 44.265-45.967 69.802-66.397 20.43-15.323 37.455-30.645 54.48-44.265 15.323-13.62 28.943-25.538 39.158-37.455l1.702-1.703 23.835-23.835c0-6.81 0-15.322-1.702-25.537 0-6.81 0-17.025-1.703-22.133L329.832 206.8l-15.322-20.43c-6.81-8.513-13.62-15.323-20.43-22.133-8.513-6.81-17.025-13.62-25.538-18.727-17.025-10.215-27.24-23.835-34.05-42.563-8.512-25.537 0-49.372 22.133-64.695h1.702c11.918-6.81 25.538-10.215 39.158-8.512 8.512 1.702 18.727 3.405 27.24 5.107 8.512 1.703 15.322 3.405 23.835 6.81H353.667c6.81-1.702 8.513-3.405 8.513-3.405 6.81-6.81 18.727-15.322 34.05-23.835C413.255 5.905 431.982 2.5 450.71 4.202c18.727 3.405 34.05 8.513 45.967 18.728l3.405 1.702c1.703 1.703 3.405 3.405 5.108 3.405 1.703 1.703 3.405 1.703 5.108 3.405l3.405-3.405 1.702-1.702C527.323 16.12 540.943 9.31 552.86 4.202c17.025-6.81 35.753-5.107 57.885 3.405 11.918 3.405 22.133 8.513 28.943 15.323 5.107 3.405 8.512 6.81 13.62 10.215 1.702 1.702 5.107 3.405 8.512 5.107h5.108c5.107 0 8.512 0 8.512-1.702 5.108-1.703 11.918-5.108 17.025-6.81 6.81-1.703 13.62-3.405 22.133-5.108 10.215-1.702 20.43 0 32.347 3.405h1.703c15.322 5.108 27.24 15.323 34.05 27.24 6.81 11.918 8.512 25.538 5.107 37.455-1.702 10.215-6.81 20.43-13.62 30.645-6.81 8.513-15.322 17.025-25.537 22.133-15.323 8.512-22.133 15.322-25.538 18.727-6.81 8.513-15.322 17.025-22.132 25.538-3.405 5.107-8.513 10.215-11.918 15.322-3.405 3.405-5.107 8.513-8.512 11.918v47.67c6.81 6.81 13.62 15.322 22.132 22.132 11.918 11.918 25.538 23.835 42.563 39.158 17.025 13.62 35.752 28.942 57.885 45.967 20.43 15.323 40.86 34.05 61.29 54.48 22.132 22.133 40.86 47.67 57.885 76.613 17.025 28.942 28.942 64.695 34.05 102.15 6.81 37.455 5.107 80.017-3.405 125.985-8.513 39.157-23.835 76.612-45.968 110.662-23.835 34.05-54.48 64.695-91.935 90.233-37.455 25.537-81.72 44.265-132.795 59.587-52.777 22.133-108.96 30.645-173.655 30.645z m-144.713-681c-11.917 11.918-25.537 25.538-42.562 40.86-17.025 15.323-35.753 30.645-56.183 45.968-22.132 17.025-42.562 35.752-61.29 57.885-18.727 20.43-34.05 44.265-45.967 68.1-11.918 23.835-20.43 51.075-25.538 80.017-5.107 27.24-3.405 56.183 3.405 86.828 5.108 27.24 17.025 54.48 34.05 81.72 17.025 27.24 40.86 52.777 71.505 74.91 30.645 22.132 68.1 42.562 112.365 56.182C397.932 949.09 450.71 955.9 508.595 955.9c57.885 0 108.96-6.81 153.225-18.728 44.265-11.917 81.72-28.942 114.068-51.075 30.645-20.43 56.182-44.265 73.207-71.505 18.728-27.24 30.645-56.182 37.455-86.827 6.81-37.455 8.513-73.208 3.405-103.853-5.107-30.645-13.62-57.885-27.24-81.72s-28.942-44.265-47.67-62.992c-18.727-18.728-37.455-35.753-54.48-49.373-23.835-17.025-44.265-34.05-61.29-49.372-17.025-15.323-32.347-28.943-44.265-40.86l-27.24-27.24H391.122c-8.512 10.215-17.025 20.43-27.24 28.942z m40.86-91.935h204.3v-3.405c0-27.24 0-39.157 6.81-51.075 5.108-6.81 10.216-13.62 15.323-22.132 5.108-6.81 10.215-11.918 13.62-17.025 8.513-10.215 17.025-20.43 25.538-28.943 8.512-10.215 20.43-18.727 34.05-27.24-3.405 1.703-5.108 1.703-8.513 3.405-8.512 3.405-20.43 5.108-32.347 5.108-11.918 0-23.835-1.703-34.05-6.81-6.81-3.405-13.62-8.513-20.43-13.62-5.108-3.405-8.513-6.81-13.62-11.918 0 0-1.703-1.702-6.81-3.405h-1.703c-10.215-3.405-15.322-1.702-15.322-1.702-5.108 1.702-11.918 5.107-18.728 10.215-10.215 8.512-17.025 13.62-23.835 17.025-5.107 5.107-13.62 6.81-20.43 6.81h-6.81l-6.81-3.405c-6.81-3.405-11.918-5.108-17.025-8.513-3.405-1.702-8.513-5.107-11.918-6.81-5.107-3.405-8.512-6.81-13.62-11.917-1.702 0-3.405-1.703-10.215-3.405-5.107 0-10.215 0-13.62 1.702-13.62 8.513-20.43 13.62-22.132 13.62-10.215 10.215-23.835 15.323-40.86 18.728-11.918 1.702-23.835 1.702-35.753-1.703-5.107-1.702-11.917-3.405-17.025-5.107 6.81 5.107 15.323 10.215 22.133 17.025 11.917 10.215 22.132 20.43 32.347 34.05 3.405 5.107 8.513 10.215 13.62 17.025 5.108 6.81 11.918 15.322 17.025 22.132 8.513 11.918 8.513 25.538 8.513 52.778-1.703 5.107-1.703 6.81-1.703 8.512z" p-id="4506" fill="#ffffff"></path><path d="M503.487 835.022c-13.62 0-25.537-11.917-25.537-25.537V559.217c0-13.62 11.917-25.537 25.537-25.537s25.538 11.917 25.538 25.537v250.268c-1.702 13.62-11.917 25.537-25.538 25.537z" p-id="4507" fill="#ffffff"></path><path d="M603.935 634.127H403.04c-13.62 0-25.538-11.917-25.538-25.537s11.918-25.538 25.538-25.538h200.895c13.62 0 25.538 11.918 25.538 25.538-1.703 15.322-11.918 25.537-25.538 25.537z" p-id="4508" fill="#ffffff"></path><path d="M503.487 584.755c-6.81 0-13.62-1.703-17.025-6.81-10.215-10.215-10.215-25.538 0-35.753L586.91 441.745c10.215-10.215 25.538-10.215 35.753 0s10.215 25.537 0 35.752l-102.15 98.745c-5.108 5.108-11.918 8.513-17.026 8.513z" p-id="4509" fill="#ffffff"></path><path d="M503.487 584.755c-6.81 0-13.62-1.703-17.025-6.81l-102.15-102.15c-10.215-10.215-10.215-25.538 0-35.753s25.538-10.215 35.753 0L520.513 540.49c10.215 10.215 10.215 25.537 0 35.752-5.108 5.108-10.216 8.513-17.026 8.513zM603.935 734.575H403.04c-13.62 0-25.538-11.918-25.538-25.538 0-13.62 11.918-25.537 25.538-25.537h200.895c13.62 0 25.538 11.917 25.538 25.537-1.703 15.323-11.918 25.538-25.538 25.538z" p-id="4510" fill="#ffffff"></path></svg>