<?xml version="1.0" standalone="no"?><!DOCTYPE svg PUBLIC "-//W3C//DTD SVG 1.1//EN" "http://www.w3.org/Graphics/SVG/1.1/DTD/svg11.dtd"><svg t="1597644180015" class="icon" viewBox="0 0 1025 1024" version="1.1" xmlns="http://www.w3.org/2000/svg" p-id="5314" width="128.125" height="128" xmlns:xlink="http://www.w3.org/1999/xlink"><defs><style type="text/css"></style></defs><path d="M844.288 173.056h-187.904l59.392-104.96c7.168-12.288 2.56-28.16-9.728-34.816-12.288-7.168-28.16-2.56-34.816 9.728l-73.728 130.048h-184.832l-73.728-130.048c-7.168-12.288-22.528-16.384-34.816-9.728-12.288 7.168-16.384 22.528-9.728 34.816l59.392 104.96h-173.056c-94.208 0-170.496 76.8-170.496 170.496v480.256c0 94.208 76.8 170.496 170.496 170.496h663.552c94.208 0 170.496-76.8 170.496-170.496V343.552c0-94.208-76.288-170.496-170.496-170.496z m-157.184 433.152l-243.2 141.824c-4.096 2.56-8.704 3.584-13.312 3.584-4.608 0-9.216-1.024-13.312-3.584-8.192-4.608-13.312-13.312-13.312-23.04v-283.136c0-9.216 5.12-18.432 13.312-23.04 8.192-4.608 18.432-4.608 26.624 0l243.2 141.824c7.68 4.608 12.8 13.824 13.312 22.528 0 9.216-5.12 18.432-13.312 23.04z" fill="#E8E8E8" p-id="5315"></path></svg>