<?xml version="1.0" standalone="no"?><!DOCTYPE svg PUBLIC "-//W3C//DTD SVG 1.1//EN" "http://www.w3.org/Graphics/SVG/1.1/DTD/svg11.dtd"><svg t="1597220888675" class="icon" viewBox="0 0 1024 1024" version="1.1" xmlns="http://www.w3.org/2000/svg" p-id="9432" width="128" height="128" xmlns:xlink="http://www.w3.org/1999/xlink"><defs><style type="text/css"></style></defs><path d="M932.042635 418.761456c-32.819476 32.822546-372.948037 372.950084-372.948037 372.950084l-124.316354 15.539928 15.539928-124.316354c0 0 342.408487-342.407464 372.948037-372.948037 30.53955-30.53955 62.157665 0 62.157665 0l46.61876 46.61876C932.042635 356.604814 964.864158 385.943003 932.042635 418.761456zM481.397005 682.934091c0 0-15.399735 15.679098 0 31.078833 15.397688 15.399735 31.090089 31.090089 46.61876 46.61876 15.528672 15.528672 31.078833 0 31.078833 0s225.729068-225.729068 318.560336-318.560336l-77.697593-77.697593C707.133236 457.19786 481.397005 682.934091 481.397005 682.934091zM916.50373 372.145765l-46.61876-46.619784c0 0-16.776082-14.302751-31.078833 0-1.744737 1.744737-10.260691 10.262738-23.308869 23.308869l77.697593 77.697593c13.034874-13.032828 21.548782-21.546735 23.308869-23.308869C930.930301 388.794957 916.50373 372.145765 916.50373 372.145765zM201.685465 278.907221c0-8.582469 6.957459-15.539928 15.539928-15.539928l372.948037 0c8.582469 0 15.539928 6.957459 15.539928 15.539928 0 8.582469-6.957459 15.539928-15.539928 15.539928L217.225393 294.447149C208.642924 294.446126 201.685465 287.48969 201.685465 278.907221zM450.318172 418.762479c-0.002047 0-0.00307-0.001023-0.00614-0.001023L217.231533 418.761456c-0.002047 0-0.00307 0.001023-0.00614 0.001023-8.582469 0-15.539928-6.957459-15.539928-15.539928 0-8.582469 6.957459-15.539928 15.539928-15.539928 0.00307 0 0.005117 0 0.00614 0l233.080499 0c0.00307 0 0.005117 0 0.00614 0 8.582469 0 15.539928 6.957459 15.539928 15.539928C465.857077 411.806044 458.900641 418.762479 450.318172 418.762479zM807.727305 247.828388c-8.582469 0-15.539928-6.957459-15.539928-15.539928l0-77.697593c0-25.746384-20.872377-46.61876-46.61876-46.61876L155.066705 107.972107c-25.747407 0-46.61876 20.872377-46.61876 46.61876l0 714.818265c0 25.746384 20.871353 46.61876 46.61876 46.61876l590.501912 0c25.745361 0 46.61876-20.872377 46.61876-46.61876L792.187377 651.855258c0-8.582469 6.957459-15.539928 15.539928-15.539928 8.582469 0 15.539928 6.957459 15.539928 15.539928L823.267233 884.948037c0 34.328853-27.829835 62.157665-62.157665 62.157665L139.5278 947.105702c-34.329876 0-62.157665-27.829835-62.157665-62.157665L77.370135 139.050939c0-34.328853 27.827789-62.157665 62.157665-62.157665L761.108544 76.893274c34.328853 0 62.157665 27.829835 62.157665 62.157665l0 93.237521C823.26621 240.87093 816.309774 247.828388 807.727305 247.828388z" p-id="9433" fill="#2786DF"></path></svg>