<?xml version="1.0" standalone="no"?><!DOCTYPE svg PUBLIC "-//W3C//DTD SVG 1.1//EN" "http://www.w3.org/Graphics/SVG/1.1/DTD/svg11.dtd"><svg t="1602293510479" class="icon" viewBox="0 0 1024 1024" version="1.1" xmlns="http://www.w3.org/2000/svg" p-id="2418" width="128" height="128" xmlns:xlink="http://www.w3.org/1999/xlink"><defs><style type="text/css"></style></defs><path d="M1014.35055 346.01c0-0.61-0.2-0.99-0.2-1.41-0.61-2.21-0.99-4.2-2.02-6.21l-86.64-215.13c-15.01-44.63-58.05-72.04-108.45-72.04H209.69055c-51.03 0-90.64 27.02-105.05 70.05L11.59055 340.6c-0.42 1.41-0.99 3.2-1.41 5.19-30.84 93.68 10.31 195.94 97.43 242.16 27.22 14.6 59.43 21.8 95.45 21.8 59.79 0.06 116.52-26.39 154.91-72.23a202.58 202.58 0 0 0 154.3 71.85c59.25-0.33 115.37-26.67 153.5-72.04a202.06 202.06 0 0 0 155.29 72.04c36.82-0.19 69.64-8 97.27-23.02 65.23-35.49 105.79-103.85 105.66-178.12a189.65 189.65 0 0 0-9.61-62.25l-0.03 0.03z m-131.28 185.1c-16.62 9.22-37.62 13.8-61.83 14.03-44.84 0.12-86.49-23.18-109.86-61.45-1.6-3.62-4.61-9.61-9.8-15.62-6.21-6.82-17.23-14.82-35.41-14.82-14.79 0-28.02 6.02-35.64 15.21-5 5.6-7.62 11.21-9.61 15.21-23.01 37.85-63.96 61.09-108.26 61.44-44.64-0.19-86-23.52-109.25-61.63a56.062 56.062 0 0 0-8.8-14.03c-17.42-20.62-56.23-19.63-71.24-1.6a58.092 58.092 0 0 0-10.41 16.4c-23.44 38.07-64.95 61.26-109.66 61.25-23.82 0-44.22-4.39-60.65-13.23h-0.19C100.23055 509.86 64.40055 456.84 64.40055 409c0-14.03 2.4-28.4 7.02-42.23 0.42-0.99 0.61-2.21 0.99-3.21l91.64-225.73c1.79-5.6 7.59-22.41 36.02-22.41h626.57c11.82 0.61 31.83 2.78 39.03 23.82l85.84 222.72c0.2 1.41 0.61 2.81 1 4.19 4.8 13.8 7.01 28.02 7.01 42.04 0.39 47.42-35.03 100.25-76.43 122.89l-0.02 0.03z m32.4 108.9c-20.4 0-32.21 16.4-32.21 36.82l0.2 205.72c0 11.4-9.41 20.81-20.81 20.81l-713.63 0.38c-11.43 0.02-20.73-9.2-20.81-20.62l-0.19-202.33c0-20.2-11.81-36.82-32.21-36.82S63.60055 660.59 63.60055 680.98l0.19 197.52c0.14 52.15 42.5 94.33 94.65 94.26l694.8-0.39c52.09-0.18 94.28-42.36 94.45-94.45V676.83c-0.01-20.4-11.82-36.82-32.22-36.82zM801.01055 372.66H210.26055c-20.43 0-37.01-11.82-37.01-32.21 0-20.21 16.62-32.21 37.01-32.21H801.00055c20.4 0 36.82 11.81 36.82 32.21 0.01 20.39-16.39 32.21-36.81 32.21z m0 0" fill="#1296db" p-id="2419"></path></svg>