<?xml version="1.0" standalone="no"?><!DOCTYPE svg PUBLIC "-//W3C//DTD SVG 1.1//EN" "http://www.w3.org/Graphics/SVG/1.1/DTD/svg11.dtd"><svg t="1597889165042" class="icon" viewBox="0 0 1024 1024" version="1.1" xmlns="http://www.w3.org/2000/svg" p-id="3648" xmlns:xlink="http://www.w3.org/1999/xlink" width="128" height="128"><defs><style type="text/css"></style></defs><path d="M950.800896 128.057344l0 639.95904q0 28.5696-19.427328 50.853888t-49.139712 34.569216-59.139072 18.284544-55.139328 5.999616-55.139328-5.999616-59.139072-18.284544-49.139712-34.569216-19.427328-50.853888 19.427328-50.853888 49.139712-34.569216 59.139072-18.284544 55.139328-5.999616q59.99616 0 109.707264 22.284288l0-306.837504-438.829056 135.419904 0 405.116928q0 28.5696-19.427328 50.853888t-49.139712 34.569216-59.139072 18.284544-55.139328 5.999616-55.139328-5.999616-59.139072-18.284544-49.139712-34.569216-19.427328-50.853888 19.427328-50.853888 49.139712-34.569216 59.139072-18.284544 55.139328-5.999616q59.99616 0 109.707264 22.284288l0-552.536064q0-17.713152 10.856448-32.283648t27.998208-20.284416l475.398144-146.276352q6.856704-2.285568 15.998976-2.285568 22.85568 0 38.854656 15.998976t15.998976 38.854656z" p-id="3649" fill="#FF7300"></path></svg>