<?xml version="1.0" standalone="no"?><!DOCTYPE svg PUBLIC "-//W3C//DTD SVG 1.1//EN" "http://www.w3.org/Graphics/SVG/1.1/DTD/svg11.dtd"><svg t="1597719982629" class="icon" viewBox="0 0 1024 1024" version="1.1" xmlns="http://www.w3.org/2000/svg" p-id="3687" xmlns:xlink="http://www.w3.org/1999/xlink" width="128" height="128"><defs><style type="text/css"></style></defs><path d="M 118.784 1001.34 c -24.0299 0 -45.8752 -8.73813 -62.2592 -26.2144 c -16.384 -16.384 -26.2144 -39.3216 -26.2144 -62.2592 V 742.468 c 0 -75.3664 38.2293 -109.227 124.518 -109.227 h 163.84 c 7.64587 -5.46133 15.2917 -12.0149 21.8453 -18.5685 l 1.09227 -1.09227 c 18.5685 -19.6608 28.3989 -41.5061 27.3067 -61.1669 v -5.46133 c 0 -4.36907 -8.73813 -26.2144 -27.3067 -53.5211 c -9.8304 -14.1995 -19.6608 -28.3989 -29.4912 -41.5061 l -2.18453 -2.18453 c -38.2293 -45.8752 -58.9824 -103.765 -58.9824 -162.748 c -1.09227 -137.626 111.411 -251.221 254.498 -257.775 h 19.6608 c 143.087 6.5536 254.498 120.149 254.498 258.867 c 0 58.9824 -20.7531 116.873 -58.9824 161.655 c -10.9227 14.1995 -21.8453 28.3989 -31.6757 42.5984 c -5.46133 7.64587 -9.8304 14.1995 -13.1072 20.7531 c -10.9227 18.5685 -15.2917 31.6757 -15.2917 33.8603 v 5.46133 c -1.09227 8.73813 1.09227 33.8603 28.3989 61.1669 c 6.5536 6.5536 13.1072 13.1072 21.8453 18.5685 h 163.84 c 86.2891 0 124.518 33.8603 124.518 109.227 v 168.209 c 0 49.152 -39.3216 88.4736 -88.4736 88.4736 l -791.893 3.2768 Z m 34.9525 -304.742 c -54.6133 0 -61.1669 9.8304 -61.1669 45.8752 v 170.394 c 0 6.5536 2.18453 13.1072 7.64587 17.4763 c 4.36907 4.36907 10.9227 7.64587 17.4763 7.64587 l 791.893 -1.09227 c 6.5536 0 13.1072 -2.18453 17.4763 -7.64587 s 7.64587 -10.9227 7.64587 -17.4763 V 742.468 c 0 -37.1371 -5.46133 -45.8752 -60.0747 -45.8752 H 691.132 l -7.64587 -5.46133 c -14.1995 -8.73813 -28.3989 -19.6608 -40.4139 -32.768 c -42.5984 -44.7829 -46.9675 -87.3813 -45.8752 -109.227 c -1.09227 -17.4763 6.5536 -38.2293 24.0299 -68.8128 c 4.36907 -7.64587 8.73813 -15.2917 14.1995 -24.0299 c 10.9227 -16.384 22.9376 -32.768 34.9525 -48.0597 c 28.3989 -33.8603 43.6907 -77.5509 43.6907 -121.242 c 0 -104.858 -84.1045 -190.054 -192.239 -195.516 h -16.384 c -108.134 5.46133 -193.331 90.6581 -193.331 195.516 c 0 43.6907 15.2917 87.3813 43.6907 121.242 c 4.36907 5.46133 7.64587 9.8304 12.0149 15.2917 c 8.73813 12.0149 17.4763 24.0299 25.1221 34.9525 c 27.3067 41.5061 38.2293 67.7205 37.1371 90.6581 c 1.09227 21.8453 -3.2768 64.4437 -45.8752 109.227 c -12.0149 12.0149 -26.2144 22.9376 -40.4139 32.768 l -7.64587 5.46133 H 153.737 Z" fill="#ffffff" p-id="3688"></path><path d="M 307.746 827.665 c 0 -17.4763 14.1995 -31.6757 31.6757 -31.6757 h 349.525 c 17.4763 0 31.6757 14.1995 31.6757 31.6757 c 0 17.4763 -14.1995 31.6757 -31.6757 31.6757 h -349.525 c -17.4763 0 -31.6757 -14.1995 -31.6757 -31.6757 Z" fill="#ffffff" p-id="3689"></path></svg>