<?xml version="1.0" standalone="no"?><!DOCTYPE svg PUBLIC "-//W3C//DTD SVG 1.1//EN" "http://www.w3.org/Graphics/SVG/1.1/DTD/svg11.dtd"><svg t="1597643729872" class="icon" viewBox="0 0 1024 1024" version="1.1" xmlns="http://www.w3.org/2000/svg" p-id="3849" width="128" height="128" xmlns:xlink="http://www.w3.org/1999/xlink"><defs><style type="text/css"></style></defs><path d="M191.99676 831.99812h-36.479384A153.597408 153.597408 0 0 1 0 678.400712V152.329589A153.597408 153.597408 0 0 1 155.517376 0.01216h526.071122a153.597408 153.597408 0 0 1 153.597408 153.597408V192.00892h-51.199136v-39.679331a102.398272 102.398272 0 0 0-102.398272-102.398272H155.517376a102.398272 102.398272 0 0 0-102.398272 102.398272v526.071123a102.398272 102.398272 0 0 0 102.398272 102.398272H191.99676z" p-id="3850" fill="#2786DF"></path><path d="M869.105334 1023.99488H343.034211A153.597408 153.597408 0 0 1 191.99676 869.757483V343.68636A153.597408 153.597408 0 0 1 343.034211 192.00892h526.071123A153.597408 153.597408 0 0 1 1023.98272 343.68636v526.071123A153.597408 153.597408 0 0 1 869.105334 1023.99488zM343.034211 241.928077a102.398272 102.398272 0 0 0-102.398272 102.398272v526.071123a102.398272 102.398272 0 0 0 102.398272 102.398272h526.071123a102.398272 102.398272 0 0 0 102.398272-102.398272V343.68636a102.398272 102.398272 0 0 0-102.398272-102.398272z" p-id="3851" fill="#2786DF"></path><path d="M809.586338 618.241727H383.99352a25.599568 25.599568 0 0 1 0-51.199136h427.512786a25.599568 25.599568 0 0 1 0 51.199136z" p-id="3852" fill="#2786DF"></path><path d="M595.829945 831.99812a25.599568 25.599568 0 0 1-25.599568-25.599568V378.885766a25.599568 25.599568 0 0 1 51.199136 0v427.512786a25.599568 25.599568 0 0 1-25.599568 25.599568z" p-id="3853" fill="#2786DF"></path></svg>