<?xml version="1.0" standalone="no"?><!DOCTYPE svg PUBLIC "-//W3C//DTD SVG 1.1//EN" "http://www.w3.org/Graphics/SVG/1.1/DTD/svg11.dtd"><svg t="1597991659377" class="icon" viewBox="0 0 1024 1024" version="1.1" xmlns="http://www.w3.org/2000/svg" p-id="2910" xmlns:xlink="http://www.w3.org/1999/xlink" width="128" height="128"><defs><style type="text/css"></style></defs><path d="M1023.99936 512c0 137.599828-54.591932 266.623667-149.951813 362.047547A510.463362 510.463362 0 0 1 512 1023.99936a510.207362 510.207362 0 0 1-362.047547-149.951813A510.335362 510.335362 0 0 1 0.00064 512c0-137.599828 54.591932-266.623667 149.951813-362.047547A510.463362 510.463362 0 0 1 512 0.00064c137.599828 0 266.687667 54.591932 362.047547 149.951813A510.207362 510.207362 0 0 1 1023.99936 512z m-511.99936 426.687467a423.80747 423.80747 0 0 0 301.695623-124.991844A423.80747 423.80747 0 0 0 938.687467 512a423.80747 423.80747 0 0 0-124.991844-301.695623A423.80747 423.80747 0 0 0 512 85.312533a423.80747 423.80747 0 0 0-301.695623 124.991844A423.80747 423.80747 0 0 0 85.312533 512c0 113.983858 44.351945 221.119724 124.991844 301.695623A423.80747 423.80747 0 0 0 512 938.687467z m8.575989-721.535098c53.951933 0 97.663878 14.527982 130.559837 44.095944 33.663958 29.503963 50.559937 70.015912 50.559937 120.70385 0 40.639949-10.495987 75.199906-31.74396 103.42387-7.93599 8.831989-32.38396 31.359961-68.095915 62.591922-12.351985 10.239987-21.695973 22.079972-28.287965 35.327956-7.039991 14.079982-10.495987 28.799964-10.495987 45.503943v22.271972H450.752077v-22.271972c0-32.31996 5.375993-59.391926 16.703979-81.279898 10.879986-22.591972 41.599948-55.80793 92.799884-101.311874l9.151988-10.751986a74.879906 74.879906 0 0 0 18.431977-47.99994c0-22.399972-6.399992-40.06395-18.495977-52.735934-12.223985-12.287985-30.207962-18.495977-54.207932-18.495977-31.167961 0-51.519936 8.767989-64.06392 27.327966-11.391986 15.423981-17.279978 38.591952-17.279978 69.567913v11.327985H322.304237v-11.327985c0-61.119924 17.727978-109.055864 54.015933-143.679821 35.839955-34.943956 83.839895-52.287935 144.255819-52.287934z m-14.079982 449.343438c20.095975 0 37.631953 6.527992 51.711935 19.711975 13.375983 13.311983 20.479974 30.399962 20.479975 50.047938 0 20.223975-7.487991 38.079952-21.567973 51.199936-13.887983 12.927984-30.719962 19.391976-50.559937 19.391975-19.519976 0-36.415954-6.975991-50.559937-20.223974a65.919918 65.919918 0 0 1-20.799974-50.367937c0-20.415974 6.847991-37.375953 20.735974-50.367937 13.887983-12.927984 30.719962-19.391976 50.559937-19.391976z" p-id="2911" fill="#FF4478"></path></svg>